<svg width="1200" height="360" viewBox="0 0 1200 360" fill="none" xmlns="http://www.w3.org/2000/svg" role="img" aria-labelledby="title desc">
  <title id="title">Gabriel B. Furlan — Senior Data and Platform Engineer</title>
  <desc id="desc">Professional banner highlighting data platforms, lakehouse architecture, infrastructure as code, and reliability engineering.</desc>
  <defs>
    <linearGradient id="background" x1="70" y1="20" x2="1120" y2="350" gradientUnits="userSpaceOnUse">
      <stop stop-color="#08111F"/>
      <stop offset="0.52" stop-color="#172554"/>
      <stop offset="1" stop-color="#115E59"/>
    </linearGradient>
    <radialGradient id="glowLeft" cx="0" cy="0" r="1" gradientUnits="userSpaceOnUse" gradientTransform="translate(162 84) rotate(42) scale(320 260)">
      <stop stop-color="#38BDF8" stop-opacity="0.28"/>
      <stop offset="1" stop-color="#38BDF8" stop-opacity="0"/>
    </radialGradient>
    <radialGradient id="glowRight" cx="0" cy="0" r="1" gradientUnits="userSpaceOnUse" gradientTransform="translate(1070 310) rotate(-140) scale(340 260)">
      <stop stop-color="#2DD4BF" stop-opacity="0.24"/>
      <stop offset="1" stop-color="#2DD4BF" stop-opacity="0"/>
    </radialGradient>
    <pattern id="grid" width="40" height="40" patternUnits="userSpaceOnUse">
      <path d="M40 0H0V40" stroke="#E2E8F0" stroke-opacity="0.055"/>
    </pattern>
    <filter id="shadow" x="-20%" y="-20%" width="140%" height="140%">
      <feDropShadow dx="0" dy="8" stdDeviation="14" flood-color="#020617" flood-opacity="0.35"/>
    </filter>
  </defs>

  <rect width="1200" height="360" rx="28" fill="url(#background)"/>
  <rect width="1200" height="360" rx="28" fill="url(#grid)"/>
  <rect width="1200" height="360" rx="28" fill="url(#glowLeft)"/>
  <rect width="1200" height="360" rx="28" fill="url(#glowRight)"/>

  <g opacity="0.46" stroke="#7DD3FC" stroke-width="2">
    <path d="M26 260C88 260 90 207 151 207C212 207 211 271 273 271"/>
    <path d="M920 84C981 84 982 136 1043 136C1104 136 1102 78 1174 78"/>
    <path d="M957 282C1004 282 1014 235 1063 235C1112 235 1122 287 1174 287" stroke="#5EEAD4"/>
  </g>

  <g fill="#BAE6FD" filter="url(#shadow)">
    <circle cx="26" cy="260" r="6"/>
    <circle cx="151" cy="207" r="7"/>
    <circle cx="273" cy="271" r="6"/>
    <circle cx="920" cy="84" r="6"/>
    <circle cx="1043" cy="136" r="7"/>
    <circle cx="1174" cy="78" r="6"/>
  </g>
  <g fill="#99F6E4" filter="url(#shadow)">
    <circle cx="957" cy="282" r="6"/>
    <circle cx="1063" cy="235" r="7"/>
    <circle cx="1174" cy="287" r="6"/>
  </g>

  <rect x="70" y="58" width="64" height="6" rx="3" fill="#38BDF8"/>
  <text x="70" y="132" fill="#F8FAFC" font-family="Inter, Segoe UI, Arial, sans-serif" font-size="54" font-weight="750" letter-spacing="-1.4">Gabriel B. Furlan</text>
  <text x="72" y="184" fill="#BAE6FD" font-family="Inter, Segoe UI, Arial, sans-serif" font-size="28" font-weight="650">Senior Data &amp; Platform Engineer · Technical Lead</text>
  <text x="72" y="225" fill="#CBD5E1" font-family="Inter, Segoe UI, Arial, sans-serif" font-size="20" font-weight="400">Scalable data platforms · Lakehouse architecture · Infrastructure as Code · Reliability</text>

  <g font-family="Inter, Segoe UI, Arial, sans-serif" font-size="14" font-weight="700" letter-spacing="0.8">
    <g transform="translate(72 268)">
      <rect width="132" height="40" rx="20" fill="#0F172A" fill-opacity="0.62" stroke="#38BDF8" stroke-opacity="0.52"/>
      <text x="66" y="25" text-anchor="middle" fill="#E0F2FE">DATABRICKS</text>
    </g>
    <g transform="translate(218 268)">
      <rect width="126" height="40" rx="20" fill="#0F172A" fill-opacity="0.62" stroke="#60A5FA" stroke-opacity="0.52"/>
      <text x="63" y="25" text-anchor="middle" fill="#DBEAFE">PYSPARK</text>
    </g>
    <g transform="translate(358 268)">
      <rect width="118" height="40" rx="20" fill="#0F172A" fill-opacity="0.62" stroke="#A78BFA" stroke-opacity="0.52"/>
      <text x="59" y="25" text-anchor="middle" fill="#EDE9FE">AZURE</text>
    </g>
    <g transform="translate(490 268)">
      <rect width="132" height="40" rx="20" fill="#0F172A" fill-opacity="0.62" stroke="#2DD4BF" stroke-opacity="0.52"/>
      <text x="66" y="25" text-anchor="middle" fill="#CCFBF1">TERRAFORM</text>
    </g>
  </g>
</svg>
